# xmcd
#
# Track frame offsets:
#	150
#	20829
#	40404
#	59981
#	71588
#	90764
#	107442
#	120492
#	135872
#	151486
#	167675
#	179902
#	197067
#	215678
#	226263
#	244080
#	261360
#
# Disc length: 3704 seconds
# Revision: 0
# Processed by: cddbd v1.5.2PL0 Copyright (c) Steve Scherf et al.
# Submitted via: dBpowerAMP V12.0
#
DISCID=f30e7611
DTITLE=Garth Brooks - The Ultimate Hits
DYEAR=2007
DGENRE=Country
TTITLE0=Aint't Going Down ('Til The Sun Comes Up)
TTITLE1=Friends In Low Places
TTITLE2=Shameless
TTITLE3=Two Of A Kind, Workin' On A Full House
TTITLE4=The Beaches Of Cheyenne
TTITLE5=If Tomorrow Never Comes
TTITLE6=Papa Loved Mama
TTITLE7=More Than A Memory
TTITLE8=Good Ride Cowboy
TTITLE9=In Another's Eyes
TTITLE10=The Fever
TTITLE11=Midnight Sun
TTITLE12=Learning To Live Again
TTITLE13=Longneck Bottle
TTITLE14=To Make You Feel My Love
TTITLE15=We Shall Be Free
TTITLE16=The Dance
EXTD=
EXTT0=
EXTT1=
EXTT2=
EXTT3=
EXTT4=
EXTT5=
EXTT6=
EXTT7=
EXTT8=
EXTT9=
EXTT10=
EXTT11=
EXTT12=
EXTT13=
EXTT14=
EXTT15=
EXTT16=
PLAYORDER=
